<?xml version="1.0" encoding="UTF-8" standalone="no"?><!DOCTYPE svg PUBLIC "-//W3C//DTD SVG 1.1//EN" "http://www.w3.org/Graphics/SVG/1.1/DTD/svg11.dtd"><svg width="100%" height="100%" viewBox="0 0 1000 1000" version="1.1" xmlns="http://www.w3.org/2000/svg" xmlns:xlink="http://www.w3.org/1999/xlink" xml:space="preserve" xmlns:serif="http://www.serif.com/" style="fill-rule:evenodd;clip-rule:evenodd;stroke-linejoin:round;stroke-miterlimit:2;"><rect x="0" y="0" width="1000" height="1000" style="fill:#f9f9f9;"/><g><path d="M26.204,26.204l205.519,-0c44.761,-0 78.286,12.604 100.575,37.813c22.29,25.209 33.435,61.083 33.435,107.622c-0,47.832 -12.146,85.215 -36.437,112.147c-24.291,26.932 -61.364,40.399 -111.22,40.399l-67.688,-0l0,175.815l-124.184,0l-0,-473.796Zm124.184,201.993l30.296,0c23.836,0 40.576,-4.901 50.22,-14.705c9.643,-9.803 14.465,-22.354 14.465,-37.651c0,-14.867 -4.185,-27.472 -12.555,-37.814c-8.37,-10.342 -24.109,-15.513 -47.217,-15.513l-35.209,0l0,105.683Z" style="fill:#001e9d;fill-rule:nonzero;"/><path d="M264.767,26.204l127.006,-0l165.738,262.127l0,-262.127l198.484,-0c-100.328,126.936 -141.43,280.675 -33.897,473.796l-164.587,0l-164.837,-260.122l-0,260.122l-127.907,0l-0,-473.796Z" style="fill:#95009d;fill-rule:nonzero;"/><path d="M777.622,331.349l0,-96.947l196.174,0l0,198.663c-37.553,29.031 -80.777,48.791 -109.642,59.281c-28.866,10.489 -53.089,7.654 -92.697,7.654c-48.764,0 -82.386,6.578 -113.12,-12.282c-30.734,-18.86 -60.681,-54.865 -77.59,-92.161c-16.908,-37.295 -25.362,-80.101 -25.362,-128.415c-0,-50.858 9.248,-95.093 27.745,-132.707c18.496,-37.613 45.587,-66.168 81.272,-85.663c27.838,-15.046 65.298,-22.568 112.379,-22.568c45.401,-0 79.358,4.662 101.871,13.986c22.513,9.323 41.196,23.786 56.05,43.387c14.853,19.602 26.016,44.448 33.489,74.539l-122.468,24.793c-5.045,-17.588 -13.592,-31.045 -25.643,-40.368c-12.051,-9.324 -27.418,-13.986 -46.101,-13.986c-27.838,-0 -50.024,10.966 -66.559,32.898c-16.535,21.933 -24.802,56.632 -24.802,104.099c-0,50.434 8.361,86.458 25.082,108.073c16.722,21.614 40.029,32.422 69.922,32.422c14.199,-0 27.745,-2.331 40.636,-6.993c12.892,-4.662 27.651,-12.609 44.28,-23.84l-0,-43.865l-84.916,0Z" style="fill:#9d0600;fill-rule:nonzero;"/><path d="M26.204,737.211c-0,-74.799 18.195,-133.034 54.586,-174.705c36.392,-41.671 87.066,-62.506 152.024,-62.506c66.596,-0 90.054,16.348 126.081,57.289c36.027,40.942 -0.797,86.953 -0.797,160.711c0,53.547 16.503,117.041 0.764,151.315c-15.739,34.274 19.835,56.82 -9.915,75.885c-29.749,19.064 -66.823,28.596 -111.22,28.596c-45.125,0 -82.471,-8.23 -112.039,-24.69c-29.568,-16.46 -53.54,-42.504 -71.918,-78.132c-18.378,-35.629 -27.566,-80.216 -27.566,-133.763Zm123.639,0.625c-0,46.254 7.505,79.487 22.517,99.697c15.011,20.21 35.435,30.315 61.273,30.315c26.566,0 47.127,-9.896 61.683,-29.69c14.556,-19.794 21.835,-55.318 21.835,-106.573c-0,-43.129 -7.597,-74.643 -22.79,-94.54c-15.194,-19.898 -35.8,-29.847 -61.82,-29.847c-24.928,-0 -44.943,10.105 -60.045,30.315c-15.102,20.211 -22.653,53.652 -22.653,100.323Z" style="fill:#e79400;fill-rule:nonzero;"/><path d="M264.767,973.796l-0,-473.796l206.064,-0c38.211,-0 67.415,3.878 87.612,11.635c20.197,7.756 36.482,22.138 48.855,43.146c12.373,21.007 18.56,46.593 18.56,76.757c-0,26.286 -4.731,48.964 -14.193,68.032c-9.462,19.068 -22.472,34.527 -39.029,46.377c-10.554,7.542 -25.019,13.79 -43.397,18.745c14.739,5.821 25.474,11.642 32.206,17.463c4.549,3.881 11.145,12.183 19.788,24.906c8.643,12.718 14.42,22.527 17.331,29.425l59.773,137.31l-139.742,0l-66.05,-144.789c-8.37,-18.745 -15.83,-30.918 -22.381,-36.52c-8.916,-7.326 -19.014,-10.989 -30.295,-10.989l-10.918,0l0,192.298l-124.184,0Zm124.184,-281.821l52.131,-0c5.64,-0 16.558,-2.155 32.752,-6.464c8.188,-1.939 14.875,-6.895 20.06,-14.867c5.186,-7.972 7.779,-17.129 7.779,-27.471c-0,-15.298 -4.094,-27.04 -12.282,-35.228c-8.188,-8.187 -23.563,-12.281 -46.126,-12.281l-54.314,0l0,96.311Z" style="fill:#349d00;fill-rule:nonzero;"/><path d="M824.775,895.584l-140.834,0l-19.378,78.212l-126.368,0l150.386,-473.796l134.829,-0l150.386,473.796l-129.37,0l-19.651,-78.212Zm-25.929,-102.451l-44.215,-170.321l-43.942,170.321l88.157,0Z" style="fill:#00d7b2;fill-rule:nonzero;"/></g></svg>